<svg width="30" height="30" viewBox="0 0 30 30" fill="none" xmlns="http://www.w3.org/2000/svg">
<g id="bi:camera-video-off">
<path id="Vector" fill-rule="evenodd" clip-rule="evenodd" d="M20.5519 23.1844C21.0867 22.6145 21.429 21.8911 21.5306 21.1162L27.3619 23.7075C27.6473 23.8347 27.96 23.8885 28.2715 23.8641C28.583 23.8397 28.8835 23.7378 29.1456 23.5677C29.4078 23.3976 29.6232 23.1647 29.7724 22.8901C29.9216 22.6156 29.9999 22.3081 30 21.9956V8.00436C29.9997 7.69213 29.9215 7.38491 29.7724 7.11058C29.6233 6.83625 29.408 6.6035 29.1461 6.43346C28.8843 6.26341 28.5841 6.16145 28.2728 6.13684C27.9616 6.11222 27.6491 6.16572 27.3638 6.29249L21.5306 8.88374C21.4115 7.98203 20.9687 7.15436 20.2846 6.55485C19.6006 5.95535 18.722 5.62488 17.8125 5.62499H8.01L9.34875 7.49999H17.8125C18.3098 7.49999 18.7867 7.69753 19.1383 8.04916C19.49 8.40079 19.6875 8.87771 19.6875 9.37499V20.625C19.6879 20.9673 19.5945 21.3032 19.4175 21.5962L20.5519 23.1844ZM2.6775 7.83749C2.42971 8.01009 2.22732 8.24005 2.08759 8.50776C1.94785 8.77548 1.87492 9.073 1.875 9.37499V20.625C1.875 21.1223 2.07254 21.5992 2.42417 21.9508C2.77581 22.3024 3.25272 22.5 3.75 22.5H13.1512L14.49 24.375H3.75C2.75544 24.375 1.80161 23.9799 1.09835 23.2766C0.395088 22.5734 0 21.6196 0 20.625V9.37499C0 8.10936 0.62625 6.98999 1.58812 6.31124L2.67563 7.83749H2.6775ZM28.125 21.9937L21.5625 19.0781V10.9219L28.125 8.00436V21.9956V21.9937ZM19.8619 28.6687L1.11187 2.41874L2.63812 1.33124L21.3881 27.5812L19.8619 28.6687Z" fill="white"/>
</g>
</svg>
