<svg width="43" height="43" viewBox="0 0 43 43" fill="none" xmlns="http://www.w3.org/2000/svg">
<g id="ci:phone">
<path id="Vector" d="M7.93838 20.5437C15.3399 12.867 26.8538 12.7411 34.4458 20.0972C34.9428 20.5777 34.9579 21.3713 34.4783 21.8673L32.1845 24.2398C31.7544 24.6846 31.0615 24.7467 30.5577 24.3865C29.3505 23.522 28.0254 22.8352 26.6231 22.3471L26.3341 22.2467C26.1398 22.1791 25.9751 22.0458 25.8685 21.8697C25.7619 21.6937 25.7201 21.486 25.7503 21.2824C25.9363 20.0399 25.1514 18.7386 23.7748 18.5151C22.0416 18.2337 20.2721 18.2632 18.5491 18.6023C17.1808 18.8737 16.4403 20.2007 16.6679 21.4345C16.7054 21.6372 16.6709 21.8466 16.5703 22.0265C16.4697 22.2064 16.3093 22.3455 16.117 22.4197L15.8333 22.5297C14.4474 23.064 13.146 23.7949 11.9687 24.6996C11.4774 25.0765 10.7828 25.0378 10.3371 24.6069L7.96554 22.3139C7.84746 22.1997 7.75303 22.0634 7.68766 21.9127C7.62229 21.762 7.58727 21.5999 7.58458 21.4357C7.5819 21.2715 7.61161 21.1083 7.67202 20.9556C7.73242 20.8028 7.82235 20.6635 7.93664 20.5455L7.93838 20.5437Z" fill="white"/>
</g>
</svg>
