<svg width="30" height="30" viewBox="0 0 30 30" fill="none" xmlns="http://www.w3.org/2000/svg">
<g id="fluent:share-screen-start-28-regular">
<path id="Vector" d="M2.14282 7.76679C2.14282 7.12743 2.39681 6.51426 2.8489 6.06216C3.301 5.61006 3.91418 5.35608 4.55354 5.35608H25.4464C26.0858 5.35608 26.6989 5.61006 27.151 6.06216C27.6031 6.51426 27.8571 7.12743 27.8571 7.76679V22.2311C27.8572 22.5477 27.795 22.8613 27.6739 23.1539C27.5528 23.4466 27.3753 23.7124 27.1514 23.9364C26.9275 24.1604 26.6617 24.338 26.3692 24.4593C26.0766 24.5805 25.7631 24.6429 25.4464 24.6429H4.55354C3.91418 24.6429 3.301 24.3889 2.8489 23.9368C2.39681 23.4847 2.14282 22.8715 2.14282 22.2321V7.76786V7.76679ZM4.55354 6.96322C4.34042 6.96322 4.13602 7.04788 3.98533 7.19858C3.83463 7.34928 3.74997 7.55367 3.74997 7.76679V22.2311C3.74997 22.6757 4.10997 23.0347 4.55354 23.0347H25.4464C25.6595 23.0347 25.8639 22.95 26.0146 22.7993C26.1653 22.6486 26.25 22.4442 26.25 22.2311V7.76786C26.25 7.55474 26.1653 7.35035 26.0146 7.19965C25.8639 7.04895 25.6595 6.96429 25.4464 6.96429H4.55354V6.96322ZM14.9978 9.23679C15.2109 9.23698 15.4151 9.32177 15.5657 9.47251L19.0532 12.9589C19.1995 13.1106 19.2804 13.3136 19.2785 13.5243C19.2765 13.735 19.1919 13.9365 19.0429 14.0854C18.8938 14.2343 18.6922 14.3187 18.4815 14.3205C18.2708 14.3222 18.0679 14.2411 17.9164 14.0947L15.8014 11.9797V19.9586C15.8014 20.1717 15.7167 20.3761 15.566 20.5268C15.4153 20.6775 15.2109 20.7621 14.9978 20.7621C14.7847 20.7621 14.5803 20.6775 14.4296 20.5268C14.2789 20.3761 14.1943 20.1717 14.1943 19.9586V11.9818L12.0835 14.0947C12.0094 14.1714 11.9208 14.2327 11.8228 14.2749C11.7248 14.317 11.6193 14.3392 11.5126 14.3402C11.4059 14.3412 11.3001 14.3209 11.2013 14.2805C11.1026 14.2402 11.0128 14.1806 10.9373 14.1051C10.8618 14.0297 10.8021 13.94 10.7617 13.8413C10.7212 13.7426 10.7009 13.6368 10.7017 13.5301C10.7026 13.4234 10.7247 13.3179 10.7668 13.2199C10.8089 13.1218 10.87 13.0331 10.9468 12.9589L14.4289 9.47251C14.5794 9.32177 14.7837 9.23698 14.9967 9.23679H14.9978Z" fill="white"/>
</g>
</svg>
