<svg width="30" height="30" viewBox="0 0 30 30" fill="none" xmlns="http://www.w3.org/2000/svg">
<g id="fluent:mic-off-20-filled">
<path id="Vector" d="M19.5 15C19.5 15.405 19.4475 15.795 19.347 16.1655L10.503 7.32149C10.5459 6.14168 11.0508 5.02599 11.9087 4.21498C12.7667 3.40396 13.9089 2.96258 15.0893 2.98599C16.2697 3.00941 17.3935 3.49575 18.2186 4.34016C19.0437 5.18457 19.5039 6.31941 19.5 7.49999V15ZM10.5 11.562V15C10.5001 15.8259 10.7274 16.6358 11.1572 17.3411C11.5869 18.0464 12.2025 18.6198 12.9364 18.9985C13.6703 19.3773 14.4943 19.5467 15.3182 19.4883C16.142 19.4299 16.9338 19.146 17.607 18.6675L19.212 20.2725C18.219 21.0655 17.0223 21.562 15.7596 21.705C14.4969 21.848 13.2194 21.6317 12.0742 21.0808C10.929 20.53 9.96258 19.6671 9.28606 18.5914C8.60953 17.5156 8.25041 16.2708 8.25002 15C8.24119 14.8071 8.1583 14.625 8.0186 14.4917C7.8789 14.3584 7.69316 14.2841 7.50005 14.2843C7.30694 14.2845 7.12135 14.3591 6.98192 14.4927C6.84248 14.6263 6.75995 14.8086 6.75152 15.0015C6.75123 17.0599 7.52043 19.0441 8.9081 20.5644C10.2958 22.0847 12.2016 23.0314 14.2515 23.2185V26.25C14.2515 26.4489 14.3305 26.6397 14.4712 26.7803C14.6118 26.921 14.8026 27 15.0015 27C15.2004 27 15.3912 26.921 15.5318 26.7803C15.6725 26.6397 15.7515 26.4489 15.7515 26.25V23.217C17.4174 23.0674 18.9978 22.4127 20.2815 21.3405L25.7205 26.781C25.7901 26.8507 25.8728 26.9061 25.9639 26.9438C26.0549 26.9816 26.1524 27.0011 26.251 27.0012C26.3495 27.0012 26.4471 26.9819 26.5382 26.9442C26.6293 26.9066 26.712 26.8514 26.7818 26.7817C26.8515 26.7121 26.9068 26.6294 26.9446 26.5384C26.9824 26.4474 27.0019 26.3498 27.0019 26.2513C27.002 26.1527 26.9827 26.0551 26.945 25.9641C26.9074 25.873 26.8521 25.7902 26.7825 25.7205L4.28252 3.22049C4.21288 3.15076 4.1302 3.09543 4.03918 3.05765C3.94816 3.01988 3.85059 3.0004 3.75205 3.00033C3.6535 3.00026 3.55591 3.0196 3.46483 3.05725C3.37376 3.09489 3.291 3.15011 3.22127 3.21974C3.15153 3.28938 3.0962 3.37206 3.05842 3.46308C3.02065 3.5541 3.00117 3.65167 3.0011 3.75021C3.00103 3.84876 3.02037 3.94636 3.05802 4.03743C3.09567 4.1285 3.15088 4.21126 3.22052 4.28099L10.5 11.5605V11.562ZM22.2045 19.0245C22.8925 17.7949 23.2526 16.409 23.25 15C23.25 14.8011 23.171 14.6103 23.0303 14.4697C22.8897 14.329 22.6989 14.25 22.5 14.25C22.3011 14.25 22.1103 14.329 21.9697 14.4697C21.829 14.6103 21.75 14.8011 21.75 15C21.75 16.0425 21.5145 17.0295 21.0915 17.91L22.2045 19.023V19.0245Z" fill="white"/>
</g>
</svg>
