<svg width="30" height="30" viewBox="0 0 30 30" fill="none" xmlns="http://www.w3.org/2000/svg">
<g id="hand svg">
<g id="Group">
<path id="Vector" d="M23.6598 4.29458C23.1995 4.29458 22.7629 4.39639 22.37 4.57744C22.1034 3.14128 20.8421 2.05008 19.3299 2.05008C18.8548 2.05008 18.4046 2.15796 18.002 2.35021C17.6685 1.00237 16.4494 0 15 0C13.5506 0 12.3315 1.00243 11.9979 2.35021C11.5954 2.15802 11.1451 2.05008 10.6701 2.05008C8.96473 2.05008 7.5773 3.43751 7.5773 5.14287V12.703C7.19819 12.5368 6.77992 12.444 6.34019 12.444C4.63483 12.444 3.24741 13.8314 3.24741 15.5368V21.8969C3.24741 26.3649 6.88242 30 11.3505 30H18.6495C23.1175 30 26.7526 26.3649 26.7526 21.8969V7.38736C26.7526 5.68194 25.3651 4.29458 23.6598 4.29458ZM24.8969 21.8969C24.8969 25.3417 22.0943 28.1443 18.6495 28.1443H11.3505C7.90569 28.1443 5.10308 25.3417 5.10308 21.8969V15.5368C5.10308 14.8546 5.65805 14.2997 6.34019 14.2997C7.02233 14.2997 7.5773 14.8546 7.5773 15.5368V20.4852H9.43297V5.14287C9.43297 4.46072 9.98794 3.90575 10.6701 3.90575C11.3522 3.90575 11.9072 4.46072 11.9072 5.14287V14.9182H13.7629V3.09278C13.7629 2.41064 14.3178 1.85567 15 1.85567C15.6821 1.85567 16.2371 2.41064 16.2371 3.09278V14.9182H18.0928V5.14287C18.0928 4.46072 18.6477 3.90575 19.3299 3.90575C20.012 3.90575 20.567 4.46072 20.567 5.14287V14.9182H22.4227V7.3873C22.4227 6.70515 22.9776 6.15019 23.6598 6.15019C24.3419 6.15019 24.8969 6.70515 24.8969 7.3873V21.8969Z" fill="white"/>
</g>
</g>
</svg>
