<svg width="30" height="30" viewBox="0 0 30 30" fill="none" xmlns="http://www.w3.org/2000/svg">
<g id="mi:circle-information">
<g id="Group">
<path id="Vector" d="M15 5C12.3478 5 9.8043 6.05357 7.92893 7.92893C6.05357 9.8043 5 12.3478 5 15C5 17.6522 6.05357 20.1957 7.92893 22.0711C9.8043 23.9464 12.3478 25 15 25C17.6522 25 20.1957 23.9464 22.0711 22.0711C23.9464 20.1957 25 17.6522 25 15C25 12.3478 23.9464 9.8043 22.0711 7.92893C20.1957 6.05357 17.6522 5 15 5ZM2.5 15C2.5 8.09625 8.09625 2.5 15 2.5C21.9037 2.5 27.5 8.09625 27.5 15C27.5 21.9037 21.9037 27.5 15 27.5C8.09625 27.5 2.5 21.9037 2.5 15Z" fill="white"/>
<path id="Vector_2" d="M15 12.5C15.3315 12.5 15.6495 12.6317 15.8839 12.8661C16.1183 13.1005 16.25 13.4185 16.25 13.75V21.25C16.25 21.5815 16.1183 21.8995 15.8839 22.1339C15.6495 22.3683 15.3315 22.5 15 22.5C14.6685 22.5 14.3505 22.3683 14.1161 22.1339C13.8817 21.8995 13.75 21.5815 13.75 21.25V13.75C13.75 13.4185 13.8817 13.1005 14.1161 12.8661C14.3505 12.6317 14.6685 12.5 15 12.5ZM16.875 9.375C16.875 9.87228 16.6775 10.3492 16.3258 10.7008C15.9742 11.0525 15.4973 11.25 15 11.25C14.5027 11.25 14.0258 11.0525 13.6742 10.7008C13.3225 10.3492 13.125 9.87228 13.125 9.375C13.125 8.87772 13.3225 8.40081 13.6742 8.04917C14.0258 7.69754 14.5027 7.5 15 7.5C15.4973 7.5 15.9742 7.69754 16.3258 8.04917C16.6775 8.40081 16.875 8.87772 16.875 9.375Z" fill="white"/>
</g>
</g>
</svg>
